<svg xmlns="http://www.w3.org/2000/svg" viewBox="0 0 600 200">
  <!-- Logo circle -->
  <g transform="translate(100, 100)">
    <circle cx="0" cy="0" r="85" fill="none" stroke="#1a5f2a" stroke-width="5"/>
    <circle cx="0" cy="0" r="78" fill="none" stroke="#fff" stroke-width="2.5"/>
    
    <circle cx="0" cy="-30" r="32" fill="#fbbf24"/>
    
    <g fill="#fbbf24">
      <polygon points="0,-60 -4,-50 4,-50"/>
      <polygon points="22,-42 17,-36 25,-35"/>
      <polygon points="32,-20 26,-17 32,-12"/>
      <polygon points="22,2 17,-4 25,-5"/>
      <polygon points="-22,-42 -17,-36 -25,-35"/>
      <polygon points="-32,-20 -26,-17 -32,-12"/>
      <polygon points="-22,2 -17,-4 -25,-5"/>
    </g>
    
    <ellipse cx="0" cy="40" rx="62" ry="42" fill="#84cc16"/>
    <ellipse cx="0" cy="36" rx="58" ry="38" fill="#65a30d"/>
    <ellipse cx="0" cy="32" rx="54" ry="34" fill="#4d7c0f"/>
    
    <path d="M -40 32 Q -25 36, -12 32" fill="none" stroke="#fff" stroke-width="1.5" opacity="0.4"/>
    <path d="M -35 40 Q -20 44, -8 40" fill="none" stroke="#fff" stroke-width="1.5" opacity="0.4"/>
    <path d="M 8 40 Q 20 44, 35 40" fill="none" stroke="#fff" stroke-width="1.5" opacity="0.4"/>
    <path d="M 12 32 Q 25 36, 40 32" fill="none" stroke="#fff" stroke-width="1.5" opacity="0.4"/>
    
    <g transform="translate(0, -15)">
      <ellipse cx="0" cy="-10" rx="7" ry="16" fill="#15803d" stroke="#fff" stroke-width="1.3"/>
      <path d="M 0,-26 Q 0,-15 0,-2" stroke="#86efac" stroke-width="0.8" fill="none"/>
      
      <ellipse cx="-11" cy="-5" rx="7" ry="14" fill="#166534" stroke="#fff" stroke-width="1.3" transform="rotate(-30 -11 -5)"/>
      <path d="M -11,-19 Q -7,-11 -4,-3" stroke="#86efac" stroke-width="0.8" fill="none"/>
      
      <ellipse cx="11" cy="-5" rx="7" ry="14" fill="#166534" stroke="#fff" stroke-width="1.3" transform="rotate(30 11 -5)"/>
      <path d="M 11,-19 Q 7,-11 4,-3" stroke="#86efac" stroke-width="0.8" fill="none"/>
    </g>
  </g>
  
  <!-- Text: AgriEase -->
  <text x="220" y="110" font-family="Arial, sans-serif" font-size="56" font-weight="bold">
    <tspan fill="#1a5f2a">Agri</tspan><tspan fill="#f97316">Ease</tspan>
  </text>
  
  <!-- Tagline: Growing Smarter -->
  <g>
    <line x1="220" y1="130" x2="280" y2="130" stroke="#1a5f2a" stroke-width="2"/>
    <text x="290" y="138" font-family="Arial, sans-serif" font-size="20" fill="#1a5f2a">Growing Smarter</text>
    <line x1="470" y1="130" x2="530" y2="130" stroke="#1a5f2a" stroke-width="2"/>
  </g>
</svg>
